# File created by Blade
# Date/Time:  Wed Jan 28 15:39:58 2015
#---------------------------------------------------------
:version 1.10
:name HOM
:units
  mass 1.0
  length 1.000000
  angle deg
:documentation
     Acclaim Skeleton File
:root
   axis xyz
   order TX TY TZ RX RY RZ
   position 0.000000 0.000000 0.000000
   orientation 0 0 0
:bonedata
   begin
      id 1
      name Spine_dum
      direction 0.000000 1.000000 0.000000
      length 6.864287
      axis 0.0 0.0 0.0 xyz
   end
   begin
      id 2
      name LeftUpLeg_dum
      direction 1.000000 0.000000 0.000000
      length 4.117376
      axis 0.0 0.0 0.0 xyz
   end
   begin
      id 3
      name RightUpLeg_dum
      direction -1.000000 0.000000 0.000000
      length 4.117376
      axis 0.0 0.0 0.0 xyz
   end
   begin
      id 4
      name Spine
      direction 0.000000 1.000000 0.000000
      length 0.000000
      axis 0.0 0.0 0.0 xyz
      dof rx ry rz
   end
   begin
      id 5
      name Spine_dum1
      direction 0.000000 1.000000 0.000000
      length 15.393827
      axis 0.0 0.0 0.0 xyz
   end
   begin
      id 6
      name Spine_dum2
      direction 0.000000 1.000000 0.000000
      length 9.314826
      axis 0.0 0.0 0.0 xyz
   end
   begin
      id 7
      name Spine_dum3
      direction 0.000000 1.000000 0.000000
      length 9.314826
      axis 0.0 0.0 0.0 xyz
   end
   begin
      id 8
      name Head
      direction 0.000000 1.000000 0.000000
      length 4.527550
      axis 0.0 0.0 0.0 xyz
      dof rx ry rz
   end
   begin
      id 9
      name LeftShoulder
      direction 1.000000 0.000000 0.000000
      length 8.275398
      axis 0.0 0.0 -90.0 xyz
      dof rx ry rz
   end
   begin
      id 10
      name LeftArm
      direction 1.000000 0.000000 0.000000
      length 12.002200
      axis 0.0 0.0 -90.0 xyz
      dof rx ry rz
   end
   begin
      id 11
      name LeftForeArm
      direction 1.000000 0.000000 0.000000
      length 10.144633
      axis 0.0 0.0 -90.0 xyz
      dof ry rz rx
   end
   begin
      id 12
      name LeftHand
      direction 0.000000 0.000000 0.000000
      length 0.000000
      axis 0.0 0.0 -90.0 xyz
      dof rx ry rz
   end
   begin
      id 13
      name LeftHand_dum1
      direction 0.000000 0.000000 0.000000
      length 0.000000
      axis 0.0 0.0 -90.0 xyz
   end
   begin
      id 14
      name LeftHand_dum2
      direction 1.000000 0.000000 0.000000
      length 3.937000
      axis 0.0 0.0 -90.0 xyz
   end
   begin
      id 15
      name LeftHandThumb1
      direction 0.000000 0.000000 1.000000
      length 3.937000
      axis 0.0 0.0 -90.0 xyz
      dof rx rz ry
   end
   begin
      id 16
      name RightShoulder
      direction -1.000000 0.000000 0.000000
      length 8.275398
      axis 0.0 0.0 90.0 xyz
      dof rx ry rz
   end
   begin
      id 17
      name RightArm
      direction -1.000000 0.000000 0.000000
      length 12.002200
      axis 0.0 0.0 90.0 xyz
      dof rx ry rz
   end
   begin
      id 18
      name RightForeArm
      direction -1.000000 0.000000 0.000000
      length 10.144633
      axis 0.0 0.0 90.0 xyz
      dof ry rz rx
   end
   begin
      id 19
      name RightHand
      direction 0.000000 0.000000 0.000000
      length 0.000000
      axis 0.0 0.0 90.0 xyz
      dof rx ry rz
   end
   begin
      id 20
      name RightHand_dum1
      direction 0.000000 0.000000 0.000000
      length 0.000000
      axis 0.0 0.0 90.0 xyz
   end
   begin
      id 21
      name RightHand_dum2
      direction -1.000000 0.000000 0.000000
      length 3.937000
      axis 0.0 0.0 90.0 xyz
   end
   begin
      id 22
      name RightHandThumb1
      direction 0.000000 0.000000 1.000000
      length 3.937000
      axis 0.0 0.0 90.0 xyz
      dof rx rz ry
   end
   begin
      id 23
      name LeftUpLeg
      direction 0.000000 -1.000000 0.000000
      length 19.394322
      axis 0.0 0.0 0.0 xyz
      dof rx ry rz
   end
   begin
      id 24
      name LeftLeg
      direction 0.000000 -1.000000 0.000000
      length 17.609563
      axis 0.0 0.0 0.0 xyz
      dof rx ry rz
   end
   begin
      id 25
      name LeftFoot
      direction 0.000000 -0.258819 0.965926
      length 6.085393
      axis 15.0 0.0 0.0 xyz
      dof rx ry rz
   end
   begin
      id 26
      name LeftToeBase
      direction 0.000000 0.000000 1.000000
      length 2.952750
      axis 0.0 0.0 0.0 xyz
      dof rx ry rz
   end
   begin
      id 27
      name RightUpLeg
      direction 0.000000 -1.000000 0.000000
      length 19.394322
      axis 0.0 0.0 0.0 xyz
      dof rx ry rz
   end
   begin
      id 28
      name RightLeg
      direction 0.000000 -1.000000 0.000000
      length 17.609563
      axis 0.0 0.0 0.0 xyz
      dof rx ry rz
   end
   begin
      id 29
      name RightFoot
      direction 0.000000 -0.258819 0.965926
      length 6.085393
      axis 15.0 0.0 0.0 xyz
      dof rx ry rz
   end
   begin
      id 30
      name RightToeBase
      direction 0.000000 0.000000 1.000000
      length 2.952750
      axis 0.0 0.0 0.0 xyz
      dof rx ry rz
   end
:hierarchy
   begin
      root Spine_dum LeftUpLeg_dum RightUpLeg_dum
      Spine_dum Spine
      LeftUpLeg_dum LeftUpLeg
      RightUpLeg_dum RightUpLeg
      Spine Spine_dum1 Spine_dum2 Spine_dum3
      Spine_dum1 Head
      Spine_dum2 LeftShoulder
      Spine_dum3 RightShoulder
      LeftShoulder LeftArm
      LeftArm LeftForeArm
      LeftForeArm LeftHand
      LeftHand LeftHand_dum1 LeftHand_dum2
      LeftHand_dum1 LeftHandThumb1
      RightShoulder RightArm
      RightArm RightForeArm
      RightForeArm RightHand
      RightHand RightHand_dum1 RightHand_dum2
      RightHand_dum1 RightHandThumb1
      LeftUpLeg LeftLeg
      LeftLeg LeftFoot
      LeftFoot LeftToeBase
      RightUpLeg RightLeg
      RightLeg RightFoot
      RightFoot RightToeBase
   end

# File created by Blade
# Date/Time:  Wed Jan 28 15:40:07 2015
# Frame Rate: 120.000 fps
#------------------------------------------------------
:FULLY-SPECIFIED
:DEGREES
981
root -8.032989 40.279422 -15.675812 20.342921 -47.386034 46.312337
Spine 14.840720 -0.501342 21.443979
Head -26.296867 -32.993920 -6.451924
LeftShoulder -18.277475 14.593631 -10.079141
LeftArm 8.318831 15.757647 -87.443037
LeftForeArm -15.722899 -0.000000 7.569961
LeftHand -1.032778 -0.000000 -11.613288
LeftHandThumb1 -26.253704 0.000000 33.147579
RightShoulder -14.980600 7.124167 -45.712460
RightArm 14.841512 85.072346 37.961281
RightForeArm 9.868885 0.000000 91.623799
RightHand -9.326195 -0.000000 -35.324427
RightHandThumb1 -24.326973 -0.000000 -32.862282
LeftUpLeg -17.589951 -2.294623 18.292801
LeftLeg 152.285643 -0.000000 -0.000000
LeftFoot 25.086430 -0.879038 -25.354666
LeftToeBase 5.858029 -0.000000 -0.000000
RightUpLeg -60.730001 -11.312856 -19.600138
RightLeg 24.479100 -0.000000 -0.000000
RightFoot -27.657358 -20.143265 15.692691
RightToeBase 9.656855 -0.000000 -0.000000
982
root -8.054879 40.283478 -15.676902 20.364382 -47.281570 46.294707
Spine 14.884891 -0.652960 21.492206
Head -26.414621 -32.953707 -6.370410
LeftShoulder -18.339983 14.645417 -10.097277
LeftArm 8.378034 15.817577 -87.508895
LeftForeArm -15.938736 -0.000000 7.513322
LeftHand -0.942056 0.000000 -11.652564
LeftHandThumb1 -26.253704 0.000000 33.147579
RightShoulder -15.019887 7.199061 -45.646599
RightArm 14.119245 85.134548 37.325622
RightForeArm 9.944686 -0.000000 91.773270
RightHand -9.303704 0.000000 -35.360066
RightHandThumb1 -24.326973 -0.000000 -32.862282
LeftUpLeg -17.557159 -2.332929 18.301323
LeftLeg 152.296558 -0.000000 -0.000000
LeftFoot 25.241324 -0.961359 -25.690049
LeftToeBase 5.872334 -0.000000 -0.000000
RightUpLeg -60.637070 -11.311892 -19.632632
RightLeg 24.437665 -0.000000 -0.000000
RightFoot -27.656157 -20.274983 15.662139
RightToeBase 9.591044 -0.000000 -0.000000
983
root -8.076938 40.287134 -15.675275 20.371718 -47.182003 46.274341
Spine 14.946387 -0.799370 21.553525
Head -26.538440 -32.936699 -6.304247
LeftShoulder -18.373355 14.612224 -10.113231
LeftArm 8.360807 15.881748 -87.555048
LeftForeArm -16.082626 -0.000000 7.522075
LeftHand -1.140774 -0.000000 -11.720377
LeftHandThumb1 -26.253704 0.000000 33.147579
RightShoulder -15.064190 7.259578 -45.582067
RightArm 13.260329 85.198984 36.543587
RightForeArm 10.119431 -0.000000 91.941749
RightHand -9.302241 0.000000 -35.377270
RightHandThumb1 -24.326973 -0.000000 -32.862282
LeftUpLeg -17.488073 -2.307512 18.277461
LeftLeg 152.314482 -0.000000 -0.000000
LeftFoot 25.224316 -0.953312 -25.727477
LeftToeBase 5.874356 -0.000000 -0.000000
RightUpLeg -60.528314 -11.308208 -19.662931
RightLeg 24.394262 -0.000000 -0.000000
RightFoot -27.650107 -20.387939 15.638383
RightToeBase 9.499864 -0.000000 -0.000000
984
root -8.098031 40.291530 -15.678233 20.412395 -47.091326 46.255121
Spine 14.997154 -0.913603 21.603362
Head -26.593492 -32.786352 -6.287729
LeftShoulder -18.378690 14.550412 -10.099575
LeftArm 8.322108 16.100503 -87.594494
LeftForeArm -16.412650 0.000000 7.471834
LeftHand -1.037648 -0.000000 -11.705816
LeftHandThumb1 -26.253704 0.000000 33.147579
RightShoulder -15.158737 7.328914 -45.518726
RightArm 12.511208 85.231074 35.870545
RightForeArm 10.250006 -0.000000 92.075758
RightHand -9.242661 -0.000000 -35.321683
RightHandThumb1 -24.326973 -0.000000 -32.862282
LeftUpLeg -17.459914 -2.287402 18.269117
LeftLeg 152.327824 -0.000000 -0.000000
LeftFoot 25.199327 -0.862461 -25.847663
LeftToeBase 5.935933 -0.000000 -0.000000
RightUpLeg -60.459547 -11.299919 -19.693132
RightLeg 24.344790 -0.000000 -0.000000
RightFoot -27.637856 -20.504770 15.623911
RightToeBase 9.426910 -0.000000 -0.000000
985
root -8.118489 40.293492 -15.682364 20.473186 -47.023298 46.214513
Spine 15.015354 -1.004213 21.659131
Head -26.662213 -32.785559 -6.244261
LeftShoulder -18.323135 14.474766 -10.035537
LeftArm 8.191454 16.168693 -87.704318
LeftForeArm -16.485208 -0.000000 7.463019
LeftHand -1.124338 -0.000000 -11.709836
LeftHandThumb1 -26.253704 0.000000 33.147579
RightShoulder -15.194043 7.387396 -45.470332
RightArm 11.348106 85.268451 34.794599
RightForeArm 10.414337 -0.000000 92.224282
RightHand -9.211348 -0.000000 -35.354909
RightHandThumb1 -24.326973 -0.000000 -32.862282
LeftUpLeg -17.413484 -2.290857 18.285912
LeftLeg 152.330377 -0.000000 -0.000000
LeftFoot 25.228314 -0.849438 -25.868832
LeftToeBase 5.809136 -0.000000 -0.000000
RightUpLeg -60.410928 -11.263116 -19.713015
RightLeg 24.303347 -0.000000 -0.000000
RightFoot -27.615021 -20.657596 15.581133
RightToeBase 9.340199 -0.000000 -0.000000
